<svg xmlns="http://www.w3.org/2000/svg" width="104" height="24" viewBox="0 0 104 24" fill="none">
<path d="M104 4.55699C103.117 4.94899 102.168 5.21299 101.172 5.33199C102.189 4.72299 102.97 3.75799 103.337 2.60799C102.386 3.17199 101.332 3.58199 100.21 3.80299C99.313 2.84599 98.032 2.24799 96.616 2.24799C93.437 2.24799 91.101 5.21399 91.819 8.29299C87.728 8.08799 84.1 6.12799 81.671 3.14899C80.381 5.36199 81.002 8.25699 83.194 9.72299C82.388 9.69699 81.628 9.47599 80.965 9.10699C80.911 11.388 82.546 13.522 84.914 13.997C84.221 14.185 83.462 14.229 82.69 14.081C83.316 16.037 85.134 17.46 87.29 17.5C85.22 19.123 82.612 19.848 80 19.54C82.179 20.937 84.768 21.752 87.548 21.752C96.69 21.752 101.855 14.031 101.543 7.10599C102.505 6.41099 103.34 5.54399 104 4.55699Z" fill="white"/>
</svg>